<svg viewBox="0 0 448 512" width="448" height="512" xmlns="http://www.w3.org/2000/svg">
  <path d="M128 40c0-22.1 17.9-40 40-40s40 17.9 40 40V188.2c8.5-7.6 19.7-12.2 32-12.2c20.6 0 38.2 13 45 31.2c8.8-9.3 21.2-15.2 35-15.2c25.3 0 46 19.5 47.9 44.3c8.5-7.7 19.8-12.3 32.1-12.3c26.5 0 48 21.5 48 48v48 16 48c0 70.7-57.3 128-128 128l-16 0H240l-.1 0h-5.2c-5 0-9.9-.3-14.7-1c-55.3-5.6-106.2-34-140-79L8 336c-13.3-17.7-9.7-42.7 8-56s42.7-9.7 56 8l56 74.7V40zM240 304c0-8.8-7.2-16-16-16s-16 7.2-16 16v96c0 8.8 7.2 16 16 16s16-7.2 16-16V304zm48-16c-8.8 0-16 7.2-16 16v96c0 8.8 7.2 16 16 16s16-7.2 16-16V304c0-8.8-7.2-16-16-16zm80 16c0-8.8-7.2-16-16-16s-16 7.2-16 16v96c0 8.8 7.2 16 16 16s16-7.2 16-16V304z"/>
  <path d="M 342.543 9.516 C 397.777 9.516 432.298 69.308 404.681 117.143 C 391.864 139.342 368.177 153.018 342.543 153.018 C 287.309 153.018 252.788 93.225 280.405 45.391 C 293.222 23.191 316.909 9.516 342.543 9.516 Z M 335.817 43.149 L 335.817 81.267 C 335.817 83.509 336.937 85.611 338.816 86.873 L 365.722 104.81 C 368.805 106.884 372.981 106.044 375.055 102.933 C 377.129 99.821 376.289 95.673 373.178 93.599 L 349.27 77.679 L 349.27 43.149 C 349.27 39.421 346.271 36.423 342.543 36.423 C 338.816 36.423 335.817 39.421 335.817 43.149 Z" style=""/>
</svg>